<?xml version="1.0" encoding="iso-8859-1"?>
<!-- Generator: Adobe Illustrator 19.0.0, SVG Export Plug-In . SVG Version: 6.00 Build 0)  -->
<svg version="1.1" id="Layer_1" xmlns="http://www.w3.org/2000/svg" xmlns:xlink="http://www.w3.org/1999/xlink" x="0px" y="0px"
	 viewBox="0 0 512 512" style="enable-background:new 0 0 512 512;" xml:space="preserve">
<circle cx="256" cy="256" r="256"/>
<g>
	<path style="fill:#F33052;" d="M384.64,346.48H127.36c-12.88,0-23.36-10.56-23.36-23.36V159.36c0-12.88,10.56-23.36,23.36-23.36
		h257.2c12.88,0,23.36,10.56,23.36,23.36v163.68C408,335.92,397.44,346.48,384.64,346.48z"/>
	<polygon style="fill:#F33052;" points="337.84,416.64 337.84,323.04 220.96,323.04 	"/>
</g>
<g>
	<rect x="244.32" y="206.16" style="fill:#FFFFFF;" width="23.36" height="23.36"/>
	<rect x="197.52" y="206.16" style="fill:#FFFFFF;" width="23.36" height="23.36"/>
	<rect x="150.8" y="206.16" style="fill:#FFFFFF;" width="23.36" height="23.36"/>
	<rect x="291.04" y="206.16" style="fill:#FFFFFF;" width="23.36" height="23.36"/>
	<rect x="337.84" y="206.16" style="fill:#FFFFFF;" width="23.36" height="23.36"/>
	<rect x="244.32" y="252.96" style="fill:#FFFFFF;" width="23.36" height="23.36"/>
	<rect x="291.04" y="252.96" style="fill:#FFFFFF;" width="23.36" height="23.36"/>
	<rect x="337.84" y="252.96" style="fill:#FFFFFF;" width="23.36" height="23.36"/>
</g>
<g>
</g>
<g>
</g>
<g>
</g>
<g>
</g>
<g>
</g>
<g>
</g>
<g>
</g>
<g>
</g>
<g>
</g>
<g>
</g>
<g>
</g>
<g>
</g>
<g>
</g>
<g>
</g>
<g>
</g>
</svg>
